<?xml version="1.0" encoding="utf-8"?>
<!-- Generator: Adobe Illustrator 28.0.0, SVG Export Plug-In . SVG Version: 6.00 Build 0)  -->
<svg version="1.1" id="圖層_1" xmlns="http://www.w3.org/2000/svg" xmlns:xlink="http://www.w3.org/1999/xlink" x="0px" y="0px"
	 viewBox="0 0 512 512" style="enable-background:new 0 0 512 512;" xml:space="preserve">
<style type="text/css">
	.st0{fill-rule:evenodd;clip-rule:evenodd;fill:#FFA49C;}
	.st1{fill-rule:evenodd;clip-rule:evenodd;fill:#FF5344;}
	.st2{fill-rule:evenodd;clip-rule:evenodd;fill:#FFFFFF;}
</style>
<circle class="st0" cx="255.7" cy="256.3" r="255.7"/>
<circle class="st1" cx="255.7" cy="256.3" r="231.3"/>
<path class="st2" d="M332.6,234.6c8.2,4.1,13.4,12.6,13.4,21.8c0,9.2-5.2,17.7-13.4,21.8c-34.6,17.3-82.4,41.2-114.7,57.3
	c-7.5,3.8-16.5,3.4-23.7-1.1c-7.2-4.4-11.5-12.3-11.5-20.7c0-33.5,0-81.3,0-114.7c0-8.4,4.4-16.3,11.5-20.7
	c7.2-4.5,16.1-4.8,23.7-1.1C250.1,193.3,297.9,217.2,332.6,234.6L332.6,234.6z"/>
</svg>
